<svg xmlns="http://www.w3.org/2000/svg" xmlns:xlink="http://www.w3.org/1999/xlink" viewBox="0 0 60 60"><defs><style>.cls-1,.cls-7{fill:none;}.cls-2{clip-path:url(#clip-path);}.cls-3{clip-path:url(#clip-path-2);}.cls-4{opacity:0.3;}.cls-5{fill:#fff;}.cls-6{fill:#4d4d4d;}.cls-7{stroke:#4d4d4d;stroke-miterlimit:10;stroke-width:2px;}</style><clipPath id="clip-path"><rect class="cls-1" x="-1131.29" width="1080" height="1920"/></clipPath><clipPath id="clip-path-2"><rect class="cls-1" x="-1551.29" width="1920" height="1920"/></clipPath></defs><g id="BG"><g class="cls-2"><g class="cls-3"><image width="4000" height="3000" transform="translate(-1871.83 -20.12) scale(0.65)" xlink:href="../Recursos/milad-fakurian-PGdW_bHDbpI-unsplash.jpg"/></g></g><g class="cls-4"><g class="cls-2"><path class="cls-5" d="M117.71,2282.44l-250.88,86.64c-42.15,14.55-113.37,14.55-155.52,0l-709-244.85c-38.27-13.22-70.6-62.45-70.6-107.5V-98.08c0-45,32.33-94.21,70.61-107.37l98.29-33.78-59.2-20.45-49.21,16.92c-52.47,18-95.15,82.94-95.15,144.68V2016.73c0,61.73,42.66,126.69,95.09,144.8l709,244.85c24.25,8.37,56.09,12.56,87.93,12.56s63.68-4.19,87.92-12.56l299.8-103.54Z"/></g></g></g><g id="Capa_2" data-name="Capa 2"><path class="cls-6" d="M27,35.81c0,1.71,0,3.42,0,5.14,0,.62.22.89.86.88.89,0,1.78,0,2.66,0,1.21,0,1.25,0,1.25-1.24,0-3.18,0-6.37,0-9.55,0-.71.14-1.15,1-1.17,2.26-.06,2.26-.09,2.53-2.41C35.43,26,35.43,26,33.93,26c-2.27,0-2.27,0-2.19-2.31,0-1.16.4-1.51,1.57-1.54,2.1-.07,2.1-.07,2.1-2.22,0-1.62,0-1.62-1.57-1.65-.37,0-.74-.07-1.1-.09-3.42-.15-5.63,1.2-5.76,5,0,.64,0,1.29,0,1.93a.73.73,0,0,1-.74.84c-1.65.2-1.64.22-1.64,1.84v.64c0,1.37,0,1.4,1.33,1.39.8,0,1.09.28,1.07,1.08C27,32.56,27,34.18,27,35.81Z"/><path class="cls-7" d="M30.74,54.83A24.85,24.85,0,1,1,54.87,28.66,24.8,24.8,0,0,1,30.74,54.83Z"/></g></svg>