<svg xmlns="http://www.w3.org/2000/svg" viewBox="0 0 500 500"><defs><style>.cls-1{fill:#fff;}</style></defs><g id="Capa_1" data-name="Capa 1"><path class="cls-1" d="M167.55,450l-3.1-9h-.07c0,.2,0,.48.05.83s0,.72,0,1.12,0,.78,0,1.14V450H162.9V439.23h2.48l3,8.6h0l3.09-8.6H174V450h-1.68v-6c0-.33,0-.68,0-1.07s0-.74,0-1.09,0-.62,0-.82h-.06l-3.22,9Z"/><path class="cls-1" d="M184.11,450H178V439.23h6.1v1.49h-4.33v2.92h4.06v1.48h-4.06v3.38h4.33Z"/><path class="cls-1" d="M191.38,450H189.6v-9.27h-3.15v-1.5h8.07v1.5h-3.14Z"/><path class="cls-1" d="M204.05,450,203,447h-4.12l-1.06,3H196l4-10.82h2l4,10.82Zm-1.51-4.51-1-2.95c0-.12-.09-.31-.17-.54s-.14-.47-.22-.71l-.18-.62c-.05.2-.11.43-.18.68s-.14.48-.21.69-.11.39-.15.5l-1,2.95Z"/><path class="cls-1" d="M219.79,450h-6.11V439.23h6.11v1.49h-4.34v2.92h4.06v1.48h-4.06v3.38h4.34Z"/><path class="cls-1" d="M231.27,450h-2l-2.71-4.41L223.82,450h-1.9l3.58-5.59-3.34-5.18h2l2.5,4.08,2.49-4.08H231l-3.36,5.24Z"/><path class="cls-1" d="M237.05,439.23a4.49,4.49,0,0,1,3,.85,3,3,0,0,1,1,2.4,4,4,0,0,1-.22,1.33,2.74,2.74,0,0,1-.71,1.11,3.36,3.36,0,0,1-1.3.76,6,6,0,0,1-2,.28h-1.14v4h-1.77V439.23Zm-.12,1.46h-1.24v3.8h1a4.5,4.5,0,0,0,1.42-.2,1.69,1.69,0,0,0,.88-.62,1.91,1.91,0,0,0,.3-1.13,1.71,1.71,0,0,0-.56-1.39A2.81,2.81,0,0,0,236.93,440.69Z"/><path class="cls-1" d="M250.5,450h-6.1V439.23h6.1v1.49h-4.33v2.92h4.06v1.48h-4.06v3.38h4.33Z"/><path class="cls-1" d="M257.06,439.23a6.57,6.57,0,0,1,2.3.34,2.63,2.63,0,0,1,1.36,1,3.26,3.26,0,0,1,.44,1.76,2.93,2.93,0,0,1-.29,1.35,2.73,2.73,0,0,1-.78.93,3.87,3.87,0,0,1-1,.59l3.06,4.77h-2l-2.6-4.32H255.8V450H254V439.23Zm-.12,1.47H255.8v3.52H257a2.85,2.85,0,0,0,1.79-.45,1.66,1.66,0,0,0,.56-1.35,1.46,1.46,0,0,0-.6-1.33A3.36,3.36,0,0,0,256.94,440.7Z"/><path class="cls-1" d="M264.88,450V439.23h1.76V450Z"/><path class="cls-1" d="M275.34,450l-3.1-9h-.07c0,.2,0,.48.05.83s0,.72,0,1.12,0,.78,0,1.14V450h-1.6V439.23h2.48l3,8.6h0l3.09-8.6h2.47V450h-1.68v-6c0-.33,0-.68,0-1.07s0-.74.05-1.09,0-.62,0-.82h-.06l-3.22,9Z"/><path class="cls-1" d="M291.9,450h-6.1V439.23h6.1v1.49h-4.33v2.92h4.06v1.48h-4.06v3.38h4.33Z"/><path class="cls-1" d="M304.42,450h-2.17L297,441.4h-.07c0,.29,0,.6.06.92s0,.66,0,1,0,.7,0,1.05V450h-1.61V439.23h2.16l5.27,8.54h.05c0-.25,0-.54,0-.86s0-.66,0-1,0-.68,0-1v-5.66h1.61Z"/><path class="cls-1" d="M312.19,450h-1.77v-9.27h-3.16v-1.5h8.08v1.5h-3.15Z"/><path class="cls-1" d="M324.86,450l-1.05-3h-4.12l-1.05,3h-1.87l4-10.82h2l4,10.82Zm-1.51-4.51-1-2.95-.17-.54c-.07-.23-.15-.47-.22-.71s-.14-.45-.18-.62c-.05.2-.11.43-.19.68l-.2.69c-.07.22-.12.39-.15.5l-1,2.95Z"/><path class="cls-1" d="M329.37,450V439.23h1.77v9.27h4.58V450Z"/><path class="cls-1" d="M166,371a3.89,3.89,0,0,0-3,1.72l-16.72,28.18a1.1,1.1,0,0,1-2.05,0l-17-28.2a3.94,3.94,0,0,0-3-1.71h-5.75a2,2,0,0,0-2,2V420a2,2,0,0,0,2,2h7.06a2,2,0,0,0,2-2V394c0-1.1.46-1.23,1-.29l12.84,21.11a4,4,0,0,0,3,1.71h1.31a4,4,0,0,0,3-1.72l12.94-21.75c.57-1,1-.82,1,.28l.06,26.57a2,2,0,0,0,2,2h7.06a2,2,0,0,0,2-2L173.64,373a2,2,0,0,0-2-2Z"/><path class="cls-1" d="M201.42,405.06a2,2,0,0,1,2-2h17a2,2,0,0,0,2-2v-4.14a2,2,0,0,0-2-2h-17a2,2,0,0,1-2-2v-5.84a2,2,0,0,1,2-2h19.8a2,2,0,0,0,2-2v-4.4a2,2,0,0,0-2-2H193a2,2,0,0,0-2,2V420a2,2,0,0,0,2,2h31.05a2,2,0,0,0,2-2v-4.41a2,2,0,0,0-2-2H203.42a2,2,0,0,1-2-2Z"/><path class="cls-1" d="M234.47,383.21a2,2,0,0,0,2,2H247a2,2,0,0,1,2,2V420a2,2,0,0,0,2,2h6.47a2,2,0,0,0,2-2V387.21a2,2,0,0,1,2-2h10.49a2,2,0,0,0,2-2v-4.53a2,2,0,0,0-2-2H236.47a2,2,0,0,0-2,2Z"/><path class="cls-1" d="M298.69,376.68a3.37,3.37,0,0,0-2.82,1.82l-18.55,41.62a1.21,1.21,0,0,0,1.19,1.83h6.74A3.23,3.23,0,0,0,288,420.1l2.5-6a3.25,3.25,0,0,1,2.77-1.85h17A3.23,3.23,0,0,1,313,414.1l2.49,6a3.25,3.25,0,0,0,2.77,1.85h7a1.2,1.2,0,0,0,1.18-1.83L307.85,378.5a3.36,3.36,0,0,0-2.81-1.82Zm-2.1,27.61a1.23,1.23,0,0,1-1.23-1.84L301,388.81c.42-1,1.11-1,1.53,0l5.65,13.64a1.24,1.24,0,0,1-1.24,1.84Z"/><path class="cls-1" d="M381.54,422c1.1,0,1.47-.73.83-1.62l-16.66-23.09a3,3,0,0,1,0-3.25l15.42-21.35c.64-.89.27-1.62-.83-1.62h-8.8a4.33,4.33,0,0,0-3.15,1.64l-9.17,13.2a1.32,1.32,0,0,1-2.3,0l-9.37-13.23a4.32,4.32,0,0,0-3.15-1.63H335c-1.1,0-1.48.73-.84,1.63l15.54,21.74a3,3,0,0,1,0,3.24l-16.46,22.7c-.65.89-.28,1.62.82,1.62h9.54a4.25,4.25,0,0,0,3.13-1.65l9.84-14.4a1.29,1.29,0,0,1,2.27,0l10,14.42a4.31,4.31,0,0,0,3.14,1.64Z"/><path class="cls-1" d="M301.1,306.18l-39,13.47c-6.55,2.27-17.63,2.27-24.18,0L127.66,281.58c-6-2.06-11-9.71-11-16.72V112.33c0-7,5-14.65,11-16.69L143,90.38l-9.21-3.18-7.65,2.63c-8.16,2.81-14.79,12.9-14.79,22.5V264.86c0,9.6,6.63,19.7,14.78,22.52l110.25,38.07a48.65,48.65,0,0,0,27.34,0l46.62-16.1Z"/><path class="cls-1" d="M195.44,72.34,237.9,57.75a44.16,44.16,0,0,1,24.2,0L372.33,95.64c6,2,11,9.69,11,16.69V264.86c0,7-5,14.67-11,16.72l-10.8,3.73,9.17,3.18,3.21-1.11c8.15-2.82,14.78-12.92,14.78-22.52V112.33c0-9.6-6.63-19.69-14.79-22.5L263.67,51.94c-7.54-2.59-19.8-2.59-27.34,0L186.26,69.15Z"/><path class="cls-1" d="M332.84,107.79a14.91,14.91,0,0,1,4.69.67l16.74,5.83c2.58.89,2.58,2.36,0,3.26l-16.74,5.83a16.75,16.75,0,0,1-9.38,0l-16.75-5.83c-2.58-.9-2.58-2.37,0-3.26l16.75-5.83a14.91,14.91,0,0,1,4.69-.67"/><path class="cls-1" d="M251.21,79.43a15,15,0,0,1,4.7.67l16.73,5.82c2.59.9,2.59,2.37,0,3.27L255.91,95a16.79,16.79,0,0,1-9.39,0l-16.74-5.82c-2.58-.9-2.58-2.37,0-3.27l16.74-5.82a14.91,14.91,0,0,1,4.69-.67"/><path class="cls-1" d="M169.52,107.83a15,15,0,0,1,4.75.68l16.63,5.78c2.61.91,2.61,2.4,0,3.31l-16.64,5.78a5.13,5.13,0,0,0-2.8,6.8L197,197.72c.55,1.44,1.3,2.16,2.07,2.16s1.5-.67,2.1-2l21.58-48.52a13.93,13.93,0,0,1,7-6.65l16.63-5.79a16.93,16.93,0,0,1,9.5,0l16.63,5.79c2.61.91,2.61,2.39,0,3.3l-16.63,5.79c-2.61.91-4.75,4.17-4.75,7.24V293.46c0,2.52-1.44,4.17-3.4,4.17a4.08,4.08,0,0,1-1.34-.24l-16.57-5.8c-2.61-.92-4.74-4.18-4.74-7.26V209c0-1.65-.29-2.49-.74-2.49s-.92.63-1.48,1.9L208,241.89a6.06,6.06,0,0,1-5.38,3.62,5,5,0,0,1-1.59-.26l-11.07-3.85a12.81,12.81,0,0,1-6.69-6.79l-11.77-31.07c-.5-1.34-1-2-1.31-2s-.63.82-.63,2.44v61.08c0,2.53-1.45,4.18-3.41,4.18a4.08,4.08,0,0,1-1.34-.24l-16.63-5.78c-2.61-.91-4.75-4.17-4.75-7.25V121.54c0-3.08,2.14-6.34,4.75-7.25l16.63-5.78a15,15,0,0,1,4.75-.68"/><path class="cls-1" d="M356.65,256.59l-36.19-77.14a10.39,10.39,0,0,1,.75-9.35l34.69-49.78a5,5,0,0,0,.56-1,8.85,8.85,0,0,1-1.37.62l-16.74,5.82a19.15,19.15,0,0,1-11,0l-6.16-2.14-13,18.68c-1.69,2.42-4.11,2.18-5.39-.54l-23.1-49.25a13.58,13.58,0,0,0-2.8-3.76c-.35,1-1.25,2.08-3.4,2.82l-13.83,4.82c.89,1.89,1.79,3.8,2.46,5.24l27.63,58.84a10.39,10.39,0,0,1-.74,9.34L254.2,219.68c-.17.25-.37.5-.57.75v20.69a11.65,11.65,0,0,0,2.25-.51l16.63-5.79a18.76,18.76,0,0,0,7.81-6L302,197.6c1.69-2.42,4.11-2.17,5.39.55l23.16,49.32c1.28,2.72.19,5.69-2.42,6.6l-16.71,5.82c-2.61.9-2.61,2.39,0,3.3L328.09,269a17.05,17.05,0,0,0,9.5,0l16.63-5.79C356.83,262.28,357.92,259.31,356.65,256.59Z"/><path class="cls-1" d="M272.58,288.33l-16.75-5.83a12.08,12.08,0,0,0-2.2-.5v11.46a7.12,7.12,0,0,1-1.54,4.6,13.68,13.68,0,0,0,3.74-.64l16.75-5.83C275.16,290.69,275.16,289.23,272.58,288.33Z"/><path class="cls-1" d="M191,259.93l-16.74-5.82a11.22,11.22,0,0,0-2.21-.51v11.46a7.2,7.2,0,0,1-1.53,4.61,13.74,13.74,0,0,0,3.74-.65L191,263.2C193.54,262.3,193.54,260.83,191,259.93Z"/></g></svg>