<svg xmlns="http://www.w3.org/2000/svg" xmlns:xlink="http://www.w3.org/1999/xlink" viewBox="0 0 60 60"><defs><style>.cls-1,.cls-6{fill:none;}.cls-2{clip-path:url(#clip-path);}.cls-3{clip-path:url(#clip-path-2);}.cls-4{opacity:0.3;}.cls-5{fill:#fff;}.cls-6{stroke:#4d4d4d;stroke-miterlimit:10;stroke-width:2px;}.cls-7{fill:#4d4d4d;}</style><clipPath id="clip-path"><rect class="cls-1" x="-1131.29" width="1080" height="1920"/></clipPath><clipPath id="clip-path-2"><rect class="cls-1" x="-1551.29" width="1920" height="1920"/></clipPath></defs><g id="BG"><g class="cls-2"><g class="cls-3"><image width="4000" height="3000" transform="translate(-1871.83 -20.12) scale(0.65)" xlink:href="../Recursos/milad-fakurian-PGdW_bHDbpI-unsplash.jpg"/></g></g><g class="cls-4"><g class="cls-2"><path class="cls-5" d="M117.71,2282.44l-250.88,86.64c-42.15,14.55-113.37,14.55-155.52,0l-709-244.85c-38.27-13.22-70.6-62.45-70.6-107.5V-98.08c0-45,32.33-94.21,70.61-107.37l98.29-33.78-59.2-20.45-49.21,16.92c-52.47,18-95.15,82.94-95.15,144.68V2016.73c0,61.73,42.66,126.69,95.09,144.8l709,244.85c24.25,8.37,56.09,12.56,87.93,12.56s63.68-4.19,87.92-12.56l299.8-103.54Z"/></g></g></g><g id="Capa_2" data-name="Capa 2"><path class="cls-6" d="M30.23,5A25,25,0,0,1,55,29.38C55.39,43.62,43.38,54.93,30.17,55,16.69,55.07,4.2,43,5,28.63,5.67,16.25,16.4,4.88,30.23,5Z"/><path class="cls-7" d="M43,42.67H37.41v-.54c0-2.79,0-5.58,0-8.38a8.68,8.68,0,0,0-.19-1.83,2.45,2.45,0,0,0-1.81-2,3,3,0,0,0-3,.76,3.29,3.29,0,0,0-1,2.46c0,3,0,6,0,9v.54H25.84V25.75h5.61V28a2.21,2.21,0,0,0,.21-.2A5.82,5.82,0,0,1,38,25.45a5.68,5.68,0,0,1,4.69,4.4A10,10,0,0,1,43,32.39c.05,3.35,0,6.69,0,10C43.07,42.49,43.05,42.55,43,42.67Z"/><path class="cls-7" d="M17.07,25.74h5.59V42.66H17.07Z"/><path class="cls-7" d="M19.85,23.39a2.94,2.94,0,0,1-3-3.92,3.17,3.17,0,0,1,3.55-1.91,2.91,2.91,0,0,1,2.65,3.06A3,3,0,0,1,19.85,23.39Z"/></g></svg>