<svg xmlns="http://www.w3.org/2000/svg" xmlns:xlink="http://www.w3.org/1999/xlink" viewBox="0 0 60 60"><defs><style>.cls-1,.cls-7{fill:none;}.cls-2{clip-path:url(#clip-path);}.cls-3{clip-path:url(#clip-path-2);}.cls-4{opacity:0.3;}.cls-5{fill:#fff;}.cls-6{fill:#4d4d4d;}.cls-7{stroke:#4d4d4d;stroke-miterlimit:10;stroke-width:2px;}</style><clipPath id="clip-path"><rect class="cls-1" x="-1131.29" width="1080" height="1920"/></clipPath><clipPath id="clip-path-2"><rect class="cls-1" x="-1551.29" width="1920" height="1920"/></clipPath></defs><g id="BG"><g class="cls-2"><g class="cls-3"><image width="4000" height="3000" transform="translate(-1871.83 -20.12) scale(0.65)" xlink:href="../Recursos/milad-fakurian-PGdW_bHDbpI-unsplash.jpg"/></g></g><g class="cls-4"><g class="cls-2"><path class="cls-5" d="M117.71,2282.44l-250.88,86.64c-42.15,14.55-113.37,14.55-155.52,0l-709-244.85c-38.27-13.22-70.6-62.45-70.6-107.5V-98.08c0-45,32.33-94.21,70.61-107.37l98.29-33.78-59.2-20.45-49.21,16.92c-52.47,18-95.15,82.94-95.15,144.68V2016.73c0,61.73,42.66,126.69,95.09,144.8l709,244.85c24.25,8.37,56.09,12.56,87.93,12.56s63.68-4.19,87.92-12.56l299.8-103.54Z"/></g></g></g><g id="Capa_2" data-name="Capa 2"><path class="cls-6" d="M41.5,24.42c-.32-4-2.67-6.05-6.61-6.17-3.25-.1-6.51-.1-9.76,0-3.85.11-6.18,2.16-6.59,6a59.82,59.82,0,0,0,0,11.51c.33,3.64,2.37,5.64,5.83,6,1.85.18,3.74,0,5.61,0v0c1.71,0,3.42,0,5.13,0,3.53-.11,6-2.19,6.35-5.67A59.51,59.51,0,0,0,41.5,24.42ZM39.65,35.26c-.11,3-1.92,4.56-4.92,4.6-1.58,0-3.15,0-4.73,0h0c-1.64,0-3.28,0-4.92,0a4.57,4.57,0,0,1-4.77-4.7,91.1,91.1,0,0,1,0-10.32c.16-2.78,1.8-4.57,4.6-4.65,3.38-.09,6.77-.08,10.15,0a4.32,4.32,0,0,1,4.58,4.54C39.77,28.23,39.77,31.75,39.65,35.26Z"/><path class="cls-6" d="M36.16,24.87a1.35,1.35,0,0,0,1.42-1.18,1.31,1.31,0,0,0-1.3-1.32A1.2,1.2,0,0,0,35,23.62,1.14,1.14,0,0,0,36.16,24.87Z"/><path class="cls-6" d="M30,24.08a5.85,5.85,0,0,0-5.91,6,5.91,5.91,0,1,0,11.82,0A5.83,5.83,0,0,0,30,24.08Zm0,10.07A4,4,0,0,1,26,30a4.06,4.06,0,0,1,4-4.15A4.15,4.15,0,0,1,34,30,4,4,0,0,1,30,34.15Z"/><path class="cls-7" d="M30.23,5A25,25,0,0,1,55,29.38C55.39,43.62,43.38,54.93,30.17,55,16.69,55.07,4.2,43,5,28.63,5.67,16.25,16.4,4.88,30.23,5Z"/></g></svg>