<svg xmlns="http://www.w3.org/2000/svg" xmlns:xlink="http://www.w3.org/1999/xlink" viewBox="0 0 60 60"><defs><style>.cls-1,.cls-7{fill:none;}.cls-2{clip-path:url(#clip-path);}.cls-3{clip-path:url(#clip-path-2);}.cls-4{opacity:0.3;}.cls-5{fill:#fff;}.cls-6{fill:#4d4d4d;}.cls-7{stroke:#4d4d4d;stroke-miterlimit:10;stroke-width:2px;}</style><clipPath id="clip-path"><rect class="cls-1" x="-1131.29" width="1080" height="1920"/></clipPath><clipPath id="clip-path-2"><rect class="cls-1" x="-1551.29" width="1920" height="1920"/></clipPath></defs><g id="BG"><g class="cls-2"><g class="cls-3"><image width="4000" height="3000" transform="translate(-1871.83 -20.12) scale(0.65)" xlink:href="../Recursos/milad-fakurian-PGdW_bHDbpI-unsplash.jpg"/></g></g><g class="cls-4"><g class="cls-2"><path class="cls-5" d="M117.71,2282.44l-250.88,86.64c-42.15,14.55-113.37,14.55-155.52,0l-709-244.85c-38.27-13.22-70.6-62.45-70.6-107.5V-98.08c0-45,32.33-94.21,70.61-107.37l98.29-33.78-59.2-20.45-49.21,16.92c-52.47,18-95.15,82.94-95.15,144.68V2016.73c0,61.73,42.66,126.69,95.09,144.8l709,244.85c24.25,8.37,56.09,12.56,87.93,12.56s63.68-4.19,87.92-12.56l299.8-103.54Z"/></g></g></g><g id="Capa_2" data-name="Capa 2"><path class="cls-6" d="M18.17,38.36A13.33,13.33,0,0,0,27.68,40,14.44,14.44,0,0,0,39.81,27.27c.19-1.5.24-3,1.72-3.91.17-.1.38-.31.26-.55s-.45-.09-.68-.07-.68.22-1.07,0c.46-.77,1.31-1.24,1.37-2.28a2.29,2.29,0,0,0-.51.13,3.27,3.27,0,0,1-3.66-.16,5.09,5.09,0,0,0-7.68,4.25c-.1,1.45-.25,1.57-1.68,1.3a15.19,15.19,0,0,1-8.37-4.54c-.73-.77-1-.41-1.11.3a5,5,0,0,0,1.16,4.9c.19.2.55.39.41.71s-.5.15-.77.1c-.92-.16-1.15.06-.86.94a5.06,5.06,0,0,0,2.81,3.22c.24.1.66.13.56.54s-.4.27-.65.28c-.85,0-.8.46-.46,1a5.17,5.17,0,0,0,3.11,2.13c.26.07.65.08.69.44s-.33.46-.56.61A11.82,11.82,0,0,1,18.17,38.36Z"/><path class="cls-7" d="M5.16,30.17a24.66,24.66,0,0,1,25.78-25,24.82,24.82,0,1,1-1.87,49.6A24.7,24.7,0,0,1,5.16,30.17Z"/></g></svg>